<mxfile host="app.diagrams.net" agent="Mozilla/5.0 (Windows NT 10.0; Win64; x64) AppleWebKit/537.36 (KHTML, like Gecko) Chrome/131.0.0.0 Safari/537.36" version="24.9.0">
  <diagram name="Page-1" id="vge4MeDpmtTztNmBEBdQ">
    <mxGraphModel dx="1481" dy="881" grid="1" gridSize="10" guides="1" tooltips="1" connect="1" arrows="1" fold="1" page="1" pageScale="1" pageWidth="850" pageHeight="1100" math="0" shadow="0">
      <root>
        <mxCell id="0" />
        <mxCell id="1" parent="0" />
        <mxCell id="6C4ZS0Aq2M-NOrAB2PfF-1" value="" style="rounded=1;whiteSpace=wrap;html=1;fillColor=#d5e8d4;strokeColor=#82b366;gradientColor=#97d077;" vertex="1" parent="1">
          <mxGeometry x="170" y="90" width="510" height="370" as="geometry" />
        </mxCell>
        <mxCell id="6C4ZS0Aq2M-NOrAB2PfF-2" value="&lt;b&gt;Azure Cloud&lt;/b&gt;" style="text;html=1;align=center;verticalAlign=middle;whiteSpace=wrap;rounded=0;" vertex="1" parent="1">
          <mxGeometry x="510" y="92.5" width="110" height="30" as="geometry" />
        </mxCell>
        <mxCell id="6C4ZS0Aq2M-NOrAB2PfF-3" value="" style="image;aspect=fixed;html=1;points=[];align=center;fontSize=12;image=img/lib/azure2/general/Storage_Container.svg;" vertex="1" parent="1">
          <mxGeometry x="430" y="205" width="172.31" height="140" as="geometry" />
        </mxCell>
        <mxCell id="6C4ZS0Aq2M-NOrAB2PfF-4" value="terraform tfstate file" style="text;html=1;align=center;verticalAlign=middle;whiteSpace=wrap;rounded=0;" vertex="1" parent="1">
          <mxGeometry x="480" y="275" width="60" height="30" as="geometry" />
        </mxCell>
        <mxCell id="6C4ZS0Aq2M-NOrAB2PfF-5" value="Azure Storage container" style="text;html=1;align=center;verticalAlign=middle;whiteSpace=wrap;rounded=0;fillColor=#d5e8d4;strokeColor=#82b366;" vertex="1" parent="1">
          <mxGeometry x="440" y="345" width="140" height="40" as="geometry" />
        </mxCell>
        <mxCell id="6C4ZS0Aq2M-NOrAB2PfF-9" style="edgeStyle=orthogonalEdgeStyle;rounded=0;orthogonalLoop=1;jettySize=auto;html=1;flowAnimation=1;" edge="1" parent="1" source="6C4ZS0Aq2M-NOrAB2PfF-6" target="6C4ZS0Aq2M-NOrAB2PfF-5">
          <mxGeometry relative="1" as="geometry" />
        </mxCell>
        <mxCell id="6C4ZS0Aq2M-NOrAB2PfF-6" value="" style="rounded=1;whiteSpace=wrap;html=1;fillColor=#ffcd28;gradientColor=#ffa500;strokeColor=#d79b00;" vertex="1" parent="1">
          <mxGeometry x="210" y="155" width="110" height="220" as="geometry" />
        </mxCell>
        <mxCell id="6C4ZS0Aq2M-NOrAB2PfF-10" value="Provider.tf -&lt;div&gt;&lt;br&gt;&lt;/div&gt;&lt;div&gt;will configure the backend account in it&lt;/div&gt;" style="text;html=1;align=center;verticalAlign=middle;whiteSpace=wrap;rounded=0;" vertex="1" parent="1">
          <mxGeometry x="227.5" y="195" width="75" height="120" as="geometry" />
        </mxCell>
        <mxCell id="6C4ZS0Aq2M-NOrAB2PfF-13" value="" style="verticalLabelPosition=bottom;html=1;verticalAlign=top;align=center;strokeColor=none;fillColor=#00BEF2;shape=mxgraph.azure.azure_subscription;" vertex="1" parent="1">
          <mxGeometry x="480" y="92.5" width="50" height="35" as="geometry" />
        </mxCell>
        <mxCell id="6C4ZS0Aq2M-NOrAB2PfF-14" value="&lt;div style=&quot;color: rgb(212, 212, 212); background-color: rgb(30, 30, 30); font-family: Consolas, &amp;quot;Courier New&amp;quot;, monospace; font-size: 14px; line-height: 19px; white-space: pre;&quot;&gt;&lt;div&gt;terraform {&lt;/div&gt;&lt;div&gt;&amp;nbsp; required_providers {&lt;/div&gt;&lt;div&gt;&amp;nbsp; &amp;nbsp; azurerm = {&lt;/div&gt;&lt;div&gt;&amp;nbsp; &amp;nbsp; &amp;nbsp; source &amp;nbsp;= &lt;span style=&quot;color: #ce9178;&quot;&gt;&quot;hashicorp/azurerm&quot;&lt;/span&gt;&lt;/div&gt;&lt;div&gt;&amp;nbsp; &amp;nbsp; &amp;nbsp; version = &lt;span style=&quot;color: #ce9178;&quot;&gt;&quot;3.117.0&quot;&lt;/span&gt;&lt;/div&gt;&lt;div&gt;&amp;nbsp; &amp;nbsp; }&lt;/div&gt;&lt;div&gt;&amp;nbsp; }&lt;/div&gt;&lt;div&gt;&amp;nbsp; backend &lt;span style=&quot;color: #b5cea8;&quot;&gt;&quot;azurerm&quot;&lt;/span&gt; {&lt;/div&gt;&lt;div&gt;&amp;nbsp; &amp;nbsp; resource_group_name &amp;nbsp;= &lt;span style=&quot;color: #ce9178;&quot;&gt;&quot;ShahiRasmalai&quot;&lt;/span&gt;&lt;/div&gt;&lt;div&gt;&amp;nbsp; &amp;nbsp; storage_account_name = &lt;span style=&quot;color: #ce9178;&quot;&gt;&quot;terraformtfstatebk&quot;&lt;/span&gt;&lt;/div&gt;&lt;div&gt;&amp;nbsp; &amp;nbsp; container_name &amp;nbsp; &amp;nbsp; &amp;nbsp; = &lt;span style=&quot;color: #ce9178;&quot;&gt;&quot;tfstate&quot;&lt;/span&gt;&lt;/div&gt;&lt;div&gt;&amp;nbsp; &amp;nbsp; key &amp;nbsp; &amp;nbsp; &amp;nbsp; &amp;nbsp; &amp;nbsp; &amp;nbsp; &amp;nbsp; &amp;nbsp; &amp;nbsp;= &lt;span style=&quot;color: #ce9178;&quot;&gt;&quot;terraform.tfstate&quot;&lt;/span&gt;&lt;/div&gt;&lt;div&gt;&amp;nbsp; }&lt;/div&gt;&lt;br&gt;&lt;div&gt;}&lt;/div&gt;&lt;br&gt;&lt;div&gt;provider &lt;span style=&quot;color: #b5cea8;&quot;&gt;&quot;azurerm&quot;&lt;/span&gt; {&lt;/div&gt;&lt;div&gt;&amp;nbsp; features {}&lt;/div&gt;&lt;div&gt;}&lt;/div&gt;&lt;/div&gt;" style="text;html=1;align=center;verticalAlign=middle;whiteSpace=wrap;rounded=0;" vertex="1" parent="1">
          <mxGeometry x="320" y="500" width="450" height="360" as="geometry" />
        </mxCell>
        <mxCell id="6C4ZS0Aq2M-NOrAB2PfF-16" style="edgeStyle=orthogonalEdgeStyle;rounded=0;orthogonalLoop=1;jettySize=auto;html=1;entryX=0.677;entryY=0.982;entryDx=0;entryDy=0;entryPerimeter=0;flowAnimation=1;" edge="1" parent="1" source="6C4ZS0Aq2M-NOrAB2PfF-14" target="6C4ZS0Aq2M-NOrAB2PfF-6">
          <mxGeometry relative="1" as="geometry" />
        </mxCell>
        <mxCell id="6C4ZS0Aq2M-NOrAB2PfF-17" value="Azure Storage accounts" style="text;html=1;align=center;verticalAlign=middle;whiteSpace=wrap;rounded=0;fillColor=#dae8fc;strokeColor=#6c8ebf;gradientColor=#7ea6e0;" vertex="1" parent="1">
          <mxGeometry x="450" y="165" width="140" height="40" as="geometry" />
        </mxCell>
      </root>
    </mxGraphModel>
  </diagram>
</mxfile>
